<svg xmlns="http://www.w3.org/2000/svg" viewBox="0 0 48 48" id="employee-performance"><path fill="#0c0c0c" d="M24 0C10.767 0 0 10.767 0 24s10.767 24 24 24 24-10.767 24-24S37.233 0 24 0zm0 47C11.318 47 1 36.682 1 24S11.318 1 24 1s23 10.318 23 23-10.318 23-23 23z"></path><path fill="#0c0c0c" d="M11.459 31.973a.499.499 0 1 0-.738.674l.625.685c.422.462.654 1.06.654 1.685v1.633a.5.5 0 0 0 1 0v-1.633c0-.875-.325-1.713-.916-2.36l-.625-.684zm13.082 0-.625.684a3.491 3.491 0 0 0-.916 2.36v1.633a.5.5 0 0 0 1 0v-1.633c0-.625.232-1.224.654-1.686l.625-.685a.499.499 0 1 0-.738-.673z"></path><path fill="#0c0c0c" d="M39.5 16.15a.5.5 0 0 0 0-1H23.744l.093-.43a2.57 2.57 0 0 0-.43-1.952 2.568 2.568 0 0 0-1.691-1.063l-4.923-.82A2.537 2.537 0 0 0 13.865 13a2.175 2.175 0 0 0-1.236.762 2.196 2.196 0 0 0-.434 1.862l.76 2.775v1.871c0 1.602.765 3.015 1.934 3.94v1.507c-.151-.012-.303.021-.41.139l-1.301 1.445L9.7 29.387A3.52 3.52 0 0 0 8 32.389v4.261a.5.5 0 0 0 1 0v-4.261c0-.873.465-1.694 1.213-2.144l3.169-1.901 1.727 2.159a.502.502 0 0 0 .363.187l.027.001c.132 0 .26-.052.354-.146l.646-.646v.293c0 .248.183.444.419.484l-.913 5.899a.501.501 0 0 0 .988.154l.935-6.036h.143l.935 6.036a.5.5 0 1 0 .988-.154l-.913-5.899a.493.493 0 0 0 .419-.484v-.293l.646.646a.501.501 0 0 0 .354.146l.027-.001a.5.5 0 0 0 .363-.187l1.727-2.159 3.169 1.901A2.514 2.514 0 0 1 27 32.389v4.261a.5.5 0 0 0 1 0v-2.5h8.748l.2 2H36.5a.5.5 0 0 0 0 1h2a.5.5 0 0 0 0-1h-.548l-.8-8H39.5a.5.5 0 0 0 0-1H39v-11h.5zm-26.095-1.758c.227-.28.563-.441.924-.441.276 0 .5-.279.5-.555 0-.456.199-.886.547-1.18a1.538 1.538 0 0 1 1.253-.345l4.923.82c.423.07.791.302 1.037.652.247.351.341.776.268 1.182l-.58 2.684-.647-.803v-.756a.5.5 0 0 0-.5-.5h-6.263a.5.5 0 0 0-.5.5v.756l-.687.855-.514-1.874a1.183 1.183 0 0 1 .239-.995zm.549 5.878v-1.753l1.302-1.621a.502.502 0 0 0 .11-.313v-.433h5.263v.432a.5.5 0 0 0 .11.313l1.302 1.616v1.758c0 2.229-1.813 4.043-4.043 4.043s-4.044-1.812-4.044-4.042zM18 27.137l-2.112-1.006v-1.146a5.264 5.264 0 0 0 4.22 0v1.148L18 27.137zm-2.459 2.305-1.386-1.732.816-.907 2.174 1.035-1.604 1.604zm2.959-.501v.75h-1v-.75c0-.013-.006-.023-.007-.036l.507-.507.507.507c-.001.013-.007.023-.007.036zm1.959.501-1.604-1.604 2.174-1.035.816.907-1.386 1.732zm16.189 3.708H28v-.761a3.518 3.518 0 0 0-1.699-3.001l-2.063-1.238h11.911l.499 5zm1.352-6h-.948l-.055-.55a.498.498 0 1 0-.994.099l.045.45H22.687l-1.164-1.294c-.108-.12-.262-.152-.415-.139V24.21c1.168-.925 1.934-2.338 1.934-3.94v-1.866l.487-2.253H38V27.15z"></path><path fill="#0c0c0c" d="M24.668 24.657a.502.502 0 0 0 .702.088l4.252-3.306 1.718.859a.5.5 0 0 0 .584-.1l2.577-2.673v.825a.5.5 0 0 0 1 0v-2a.5.5 0 0 0-.5-.5h-2a.5.5 0 0 0 0 1h.761l-2.303 2.389-1.672-.836a.501.501 0 0 0-.53.053l-4.5 3.5a.497.497 0 0 0-.089.701z"></path></svg>